<?xml version="1.0" encoding="utf-8"?>
<!-- Generator: Adobe Illustrator 22.1.0, SVG Export Plug-In . SVG Version: 6.00 Build 0)  -->
<svg version="1.1" id="Ubahn_Wien" xmlns="http://www.w3.org/2000/svg" xmlns:xlink="http://www.w3.org/1999/xlink" x="0px" y="0px"
	 viewBox="0 0 1360.6 1213.2" style="enable-background:new 0 0 1360.6 1213.2;" xml:space="preserve">
<style type="text/css">
	.st0{fill:none;stroke:#EF7D05;stroke-width:10.465;stroke-miterlimit:3.864;}
	.st1{fill:none;stroke:#9C6936;stroke-width:10.465;stroke-miterlimit:3.864;}
	.st2{fill:none;stroke:#A963A5;stroke-width:10.465;stroke-miterlimit:3.864;}
	.st3{fill:none;stroke:#E30B17;stroke-width:10.465;stroke-miterlimit:3.864;}
	.st4{fill:none;stroke:#009640;stroke-width:10.465;stroke-miterlimit:3.864;}
	.st5{fill-rule:evenodd;clip-rule:evenodd;fill:#FFFFFF;stroke:#A963A5;stroke-width:5;stroke-miterlimit:3.864;}
</style>
<g id="Tracks">
	<path id="U3" class="st0" d="M273.4,414.2l99.8,100.1c0.3,0.3,0.6,0.6,1,0.9l35.3,31.7c2.2,2,5.1,3.1,8.1,3.1
		c0,0,288.3,1.8,317.2,1.8c49.7,0,45.5-1.8,77.1,29.7c23.9,23.9,74,73.1,79.1,78c0.4,0.4,0.8,0.7,1.1,1c0,0,12.7,14.7,15.7,19.3
		c1.9,2.9,2.9,6.3,2.9,9.8v96.1"/>
	<path id="U6_2_" class="st1" d="M118.7,989.3l140.4-140.1l35.3-32.5c3.1-2.8,7.1-4.4,11.3-4.5l106.5-0.8l0.7-90.8v-57.4v-55.5V550
		l0.6-59.7l-0.6-37.8c0,0,0.1-20.6,0-37.3c-0.1-16.8-0.9-27.6,13.6-41.3s25.6-24.6,25.6-24.6l27.2-27.1l28.7-29.7
		c0,0,19.9-23.6,34.4-23.3s46,0,46,0l14.7,0c4.7,0,9.2-1.7,12.7-4.8l17.6-15.4l78.8-79.4l22.5-22"/>
	<path id="U2_2_" class="st2" d="M1279.6,451.3c0,0,0-42.3,0-51.5c0-11.5-5.7-13.4-18.4-13.4h-33.7c-2.9,0-5.7,1.1-7.7,3.2
		l-55.5,55.5c-2.8,2.8-6.7,4.4-10.7,4.4h-36.7c-3.3,0-6.5,1.2-9,3.3c0,0-106.4,90.3-109.5,93.3c0,0-20.3,19.6-29.4,10.5
		C967.4,555,844.4,432,827,414.6c-13.5-13.5-17-13.9-54.7-13.9c-27.4,0-60,0-60,0s-52.2,0-62.5,0c-12.4,0-22.1,13.4-56.1,47.4
		S571.5,468.6,550,490s-20.1,21.5-20.1,61.3s0.2,40.6,27.7,68c33.1,33.1,23,31.2,72.1,30.9c4.1,0,7.5,3.3,7.5,7.5l0,5.7"/>
	<path id="U1_1_" class="st3" d="M1021.9,152.5c0,0-361.4,359.4-371.5,369.5c-12,12-12.9,17.6-12.9,29.7s0,277.7,0,300.2
		c0,22.5-0.3,23,10.1,33.5c17.5,17.5,105.8,103.8,105.8,103.8"/>
	<path id="U4_1_" class="st4" d="M161.6,663.8c0,0,424.5,0,475.8,0s49.1,2.7,79.1-27.3c24.3-24.3,20.9-16.7,20.9-84.6
		c0-73,3.5-60.6-25.9-90.1c-25-25-126.6-125.6-141.5-140.5c-22.3-22.3-27.5-24.3-27.5-52.1l0.6-64.3"/>
</g>
<g id="Stations">
	<g id="U2">
		<path class="st5" d="M1079.8,476.6"/>
		<path class="st2" d="M1111.9,450.4"/>
		<path class="st2" d="M1157.8,448.9"/>
		<path class="st2" d="M1194.1,415.2"/>
		<path class="st2" d="M1223.2,387.3"/>
		<path class="st2" d="M1261.2,386.4"/>
		<path class="st2" d="M1279.6,449.6"/>
		<path class="st2" d="M1046.4,505"/>
		<path class="st2" d="M968.3,555.9"/>
		<path class="st2" d="M901,488.6"/>
		<path class="st2" d="M864.3,451.5"/>
		<path class="st2" d="M826.5,414.1"/>
		<path class="st2" d="M772.4,400.8"/>
		<path class="st2" d="M712.4,400.8"/>
		<path class="st2" d="M649.8,400.8"/>
		<path class="st2" d="M594.3,447.6"/>
		<path class="st2" d="M550,490"/>
		<path class="st2" d="M529.9,550.7"/>
		<path class="st2" d="M557.6,619.3"/>
		<path class="st2" d="M637.4,663.8"/>
	</g>
	<g id="U1">
		<path class="st2" d="M1020.9,153.5"/>
		<path class="st2" d="M998.9,175.5"/>
		<path class="st2" d="M976.9,197.2"/>
		<path class="st2" d="M954.7,219.6"/>
		<path class="st2" d="M934,240"/>
		<path class="st2" d="M912,261.8"/>
		<path class="st2" d="M887.3,286.3"/>
		<path class="st2" d="M867.6,306"/>
		<line class="st2" x1="848" y1="325.5" x2="848" y2="325.5"/>
		<path class="st2" d="M803.4,369.8"/>
		<path class="st2" d="M772.4,400.8"/>
		<path class="st2" d="M742.5,430.8"/>
		<path class="st2" d="M711.9,462.2"/>
		<path class="st2" d="M637.4,551.5"/>
		<path class="st2" d="M637.4,663.8"/>
		<path class="st2" d="M637.5,725.8"/>
		<path class="st2" d="M637.5,799.7"/>
		<path class="st2" d="M637.5,852.9"/>
		<path class="st2" d="M648.6,886.1"/>
		<path class="st2" d="M670.1,907.1"/>
		<path class="st2" d="M691.6,928.7"/>
		<path class="st2" d="M711.6,948.2"/>
		<path class="st2" d="M732.1,967.9"/>
		<path class="st2" d="M753.3,989.3"/>
	</g>
	<g id="U3_1_">
		<path class="st2" d="M273.4,414.2"/>
		<path class="st2" d="M293.4,434.4"/>
		<path class="st2" d="M321,461.9"/>
		<path class="st2" d="M347.6,488.7"/>
		<path class="st2" d="M373.7,514.8"/>
		<path class="st2" d="M412.5,549.3"/>
		<path class="st2" d="M454.5,550.7"/>
		<path class="st2" d="M490.8,550.7"/>
		<path class="st2" d="M529.9,550.7"/>
		<path class="st2" d="M573.9,551.3"/>
		<path id="Stephansplatz" class="st2" d="M637.4,551.5"/>
		<path class="st2" d="M693.2,551.7"/>
		<path class="st2" d="M737.6,551.3"/>
		<path class="st2" d="M811.8,581.5"/>
		<path class="st2" d="M830.7,600.3"/>
		<path class="st2" d="M850.8,619.3"/>
		<path class="st2" d="M871.2,639.9"/>
		<path class="st2" d="M891.4,660.1"/>
		<path class="st2" d="M909.9,684.6"/>
		<path class="st2" d="M910.6,725.8"/>
		<path class="st2" d="M910.6,785.8"/>
	</g>
	<g id="U4">
		<path class="st2" d="M161.6,663.8"/>
		<path class="st2" d="M191.2,663.8"/>
		<path class="st2" d="M231.6,663.8"/>
		<path class="st2" d="M269.1,663.8"/>
		<path class="st2" d="M303.7,663.8"/>
		<path class="st2" d="M338.8,663.8"/>
		<path class="st2" d="M374.2,663.8"/>
		<path class="st2" d="M412.7,663.8"/>
		<path class="st2" d="M462.2,663.8"/>
		<path class="st2" d="M515.8,663.8"/>
		<path class="st2" d="M571.4,663.8"/>
		<path class="st2" d="M637.4,663.8"/>
		<path class="st2" d="M717,636.4"/>
		<path class="st2" d="M737.6,551.3"/>
		<path class="st2" d="M711.9,462.2"/>
		<path class="st2" d="M650.6,400.8"/>
		<path class="st2" d="M606.7,356.8"/>
		<path class="st2" d="M570,320.4"/>
		<path class="st2" d="M543.1,269.2"/>
		<path class="st2" d="M543.1,204.2"/>
	</g>
	<g id="U6">
		<path class="st2" d="M118.7,989.3"/>
		<path class="st2" d="M150.3,958.6"/>
		<path class="st2" d="M180.8,928"/>
		<path class="st2" d="M209.2,898.9"/>
		<path class="st2" d="M236,873.9"/>
		<path class="st2" d="M259,849.2"/>
		<path class="st2" d="M412.7,811.9"/>
		<path class="st2" d="M412.9,720.7"/>
		<path class="st2" d="M412.7,663.8"/>
		<path class="st2" d="M413.5,607.4"/>
		<path class="st2" d="M412.5,549.3"/>
		<path class="st2" d="M413.5,489.3"/>
		<path class="st2" d="M413.2,452.6"/>
		<path class="st2" d="M412.9,415.8"/>
		<path class="st2" d="M426.7,373.8"/>
		<path class="st2" d="M452.1,349.4"/>
		<path class="st2" d="M479.7,322.2"/>
		<path class="st2" d="M508,292.6"/>
		<path class="st2" d="M543.1,269.2"/>
		<path class="st2" d="M588.5,269.2"/>
		<path class="st2" d="M610.4,268"/>
		<path class="st2" d="M633.4,249.6"/>
		<path class="st2" d="M712.2,170.2"/>
		<path class="st2" d="M734.7,147.6"/>
	</g>
</g>
</svg>
